HIERARCHY
ROOT Hips
{
	OFFSET 0.000000 0.000000 0.000000
	CHANNELS 6 Xposition Yposition Zposition Zrotation Yrotation Xrotation 
	JOINT LHipJoint
	{
		OFFSET 0.000000 0.000000 0.000000
		CHANNELS 3 Zrotation Yrotation Xrotation
		JOINT LeftUpLeg
		{
			OFFSET 1.363060 -1.794630 0.839290
			CHANNELS 3 Zrotation Yrotation Xrotation
			JOINT LeftLeg
			{
				OFFSET 2.448110 -6.726130 0.000000
				CHANNELS 3 Zrotation Yrotation Xrotation
				JOINT LeftFoot
				{
					OFFSET 2.562200 -7.039590 0.000000
					CHANNELS 3 Zrotation Yrotation Xrotation
					JOINT LeftToeBase
					{
						OFFSET 0.157640 -0.433110 2.322550
						CHANNELS 3 Zrotation Yrotation Xrotation
						End Site
						{
							OFFSET 0.000000 0.000000 0.000000
						}
					}
				}
			}
		}
	}
	JOINT RHipJoint
	{
		OFFSET 0.000000 0.000000 0.000000
		CHANNELS 3 Zrotation Yrotation Xrotation
		JOINT RightUpLeg
		{
			OFFSET -1.305520 -1.794630 0.839290
			CHANNELS 3 Zrotation Yrotation Xrotation
			JOINT RightLeg
			{
				OFFSET -2.542530 -6.985550 0.000000
				CHANNELS 3 Zrotation Yrotation Xrotation
				JOINT RightFoot
				{
					OFFSET -2.568260 -7.056230 0.000000
					CHANNELS 3 Zrotation Yrotation Xrotation
					JOINT RightToeBase
					{
						OFFSET -0.164730 -0.452590 2.363150
						CHANNELS 3 Zrotation Yrotation Xrotation
						End Site
						{
							OFFSET 0.000000 0.000000 0.000000
						}
					}
				}
			}
		}
	}
	JOINT LowerBack
	{
		OFFSET 0.000000 0.000000 0.000000
		CHANNELS 3 Zrotation Yrotation Xrotation
		JOINT Spine
		{
			OFFSET 0.028270 2.035590 -0.193380
			CHANNELS 3 Zrotation Yrotation Xrotation
			JOINT Spine1
			{
				OFFSET 0.056720 2.048850 -0.042750
				CHANNELS 3 Zrotation Yrotation Xrotation
				JOINT Neck
				{
					OFFSET 0.000000 0.000000 0.000000
					CHANNELS 3 Zrotation Yrotation Xrotation
					JOINT Neck1
					{
						OFFSET -0.054170 1.746240 0.172020
						CHANNELS 3 Zrotation Yrotation Xrotation
						JOINT Head
						{
							OFFSET 0.104070 1.761360 -0.123970
							CHANNELS 3 Zrotation Yrotation Xrotation
							End Site
							{
								OFFSET 0.000000 0.000000 0.000000
							}
						}
					}
				}
				JOINT LeftShoulder
				{
					OFFSET 0.000000 0.000000 0.000000
					CHANNELS 3 Zrotation Yrotation Xrotation
					JOINT LeftArm
					{
						OFFSET 3.362410 1.200890 -0.311210
						CHANNELS 3 Zrotation Yrotation Xrotation
						JOINT LeftForeArm
						{
							OFFSET 4.983000 -0.000000 -0.000000
							CHANNELS 3 Zrotation Yrotation Xrotation
							JOINT LeftHand
							{
								OFFSET 3.483560 -0.000000 -0.000000
								CHANNELS 3 Zrotation Yrotation Xrotation
								JOINT LeftFingerBase
								{
									OFFSET 0.000000 0.000000 0.000000
									CHANNELS 3 Zrotation Yrotation Xrotation
									JOINT LeftHandIndex1
									{
										OFFSET 0.715260 -0.000000 -0.000000
										CHANNELS 3 Zrotation Yrotation Xrotation
										End Site
										{
											OFFSET 0.000000 0.000000 0.000000
										}
									}
								}
								JOINT LThumb
								{
									OFFSET 0.000000 0.000000 0.000000
									CHANNELS 3 Zrotation Yrotation Xrotation
									End Site
									{
										OFFSET 0.000000 0.000000 0.000000
									}
								}
							}
						}
					}
				}
				JOINT RightShoulder
				{
					OFFSET 0.000000 0.000000 0.000000
					CHANNELS 3 Zrotation Yrotation Xrotation
					JOINT RightArm
					{
						OFFSET -3.136600 1.374050 -0.404650
						CHANNELS 3 Zrotation Yrotation Xrotation
						JOINT RightForeArm
						{
							OFFSET -5.241900 -0.000000 -0.000000
							CHANNELS 3 Zrotation Yrotation Xrotation
							JOINT RightHand
							{
								OFFSET -3.444170 -0.000000 -0.000000
								CHANNELS 3 Zrotation Yrotation Xrotation
								JOINT RightFingerBase
								{
									OFFSET 0.000000 0.000000 0.000000
									CHANNELS 3 Zrotation Yrotation Xrotation
									JOINT RightHandIndex1
									{
										OFFSET -0.622530 -0.000000 -0.000000
										CHANNELS 3 Zrotation Yrotation Xrotation
										End Site
										{
											OFFSET 0.000000 0.000000 0.000000
										}
									}
								}
								JOINT RThumb
								{
									OFFSET 0.000000 0.000000 0.000000
									CHANNELS 3 Zrotation Yrotation Xrotation
									End Site
									{
										OFFSET 0.000000 0.000000 0.000000
									}
								}
							}
						}
					}
				}
			}
		}
	}
}
MOTION
Frames: 8
Frame Time: 0.008333
13.098973 15.430110 1.499047 101.545250 -85.808042 -55.279415 -8.232751 -0.138012 4.416174 -11.857685 -11.716085 -78.315343 -1.777834 3.229108 53.465681 3.750107 9.346481 -25.379225 -2.914200 0.000000 -34.406200 8.963556 1.121508 4.796470 4.196564 4.480762 -81.632749 1.361135 -4.933779 57.998330 -2.758858 -3.533095 -26.192562 1.588100 0.000001 -51.551900 0.358406 -2.651556 -7.316507 -0.573932 -2.951884 -4.460161 -5.350667 -3.185200 1.577083 10.744087 -9.516246 -15.359797 -2.749040 -0.087057 -2.660945 0.000000 0.000000 0.000000 0.821380 9.632096 4.508675 -70.977559 2.665189 -24.803022 -0.703180 -15.177663 -0.038189 33.171353 -6.763144 -2.040120 -0.020449 0.073733 -0.000000 0.000000 0.000000 0.000000 0.000000 0.000000 0.000000 13.801139 -7.085546 3.861695 72.007439 6.680116 -31.651574 0.699467 13.806556 -0.037125 -21.839012 16.676049 -3.299856 0.130323 -0.209600 -0.000000 0.000000 0.000000 0.000000 0.000000 0.000000 0.000000 
13.070526 15.348716 1.506732 101.654675 -85.743015 -54.595873 -8.215960 -0.169867 4.502051 -11.739227 -12.138606 -79.806122 -1.692545 3.385125 54.785329 3.814048 9.389121 -25.932366 -3.032300 0.000001 -34.214700 8.972020 1.176292 4.876403 4.056895 4.525892 -83.179266 1.286307 -5.120499 59.283595 -2.769358 -3.431942 -26.637846 1.621400 0.000000 -51.702800 0.384069 -2.683480 -7.439451 -0.566224 -2.990144 -4.477791 -5.334485 -3.225877 1.668424 10.862052 -9.776020 -15.645300 -2.701982 -0.079034 -2.754710 0.000000 0.000000 0.000000 0.684961 10.016471 4.571683 -70.567416 3.700238 -25.687554 -0.678764 -13.973928 -0.036177 33.183203 -6.403141 -1.931910 -0.020056 0.069675 -0.000000 0.000000 0.000000 0.000000 0.000000 0.000000 0.000000 13.846653 -7.364174 3.948490 71.597296 5.403212 -32.844654 0.667347 13.048678 -0.035768 -21.997688 16.531564 -3.294267 0.130702 -0.203582 -0.000000 0.000000 0.000000 0.000000 0.000000 0.000000 0.000000 
13.042569 15.264142 1.514287 101.740675 -85.671899 -53.883939 -8.197165 -0.204862 4.585785 -11.601058 -12.581213 -81.311386 -1.597960 3.541391 56.132589 3.882430 9.456760 -26.487191 -3.157000 0.000000 -33.986500 8.982995 1.238766 4.954454 3.892828 4.572137 -84.742823 1.200247 -5.309514 60.603749 -2.784108 -3.353012 -27.087752 1.658301 -0.000000 -51.837300 0.402275 -2.715963 -7.554834 -0.560115 -3.028151 -4.494017 -5.318084 -3.266261 1.753406 10.982842 -10.040036 -15.927615 -2.652609 -0.070660 -2.848467 0.000000 0.000000 0.000000 0.552347 10.402492 4.632572 -70.120344 4.717570 -26.574468 -0.651407 -12.817406 -0.034350 33.217402 -6.070292 -1.833399 -0.020380 0.066095 -0.000000 0.000000 0.000000 0.000000 0.000000 0.000000 0.000000 13.892246 -7.647163 4.031169 71.175629 4.130850 -33.982651 0.631559 12.378825 -0.034529 -22.175921 16.398471 -3.293577 0.131199 -0.197993 -0.000000 0.000000 0.000000 0.000000 0.000000 0.000000 0.000000 
13.015289 15.176589 1.521703 101.808556 -85.596305 -53.156679 -8.176743 -0.244256 4.664196 -11.443678 -13.036763 -82.823522 -1.494269 3.697811 57.507900 3.954408 9.547111 -27.044824 -3.288700 -0.000000 -33.722701 8.995557 1.309238 5.028568 3.705313 4.619443 -86.312555 1.102957 -5.499731 61.956245 -2.803378 -3.296929 -27.545869 1.699900 0.000000 -51.944000 0.413832 -2.747960 -7.657129 -0.555749 -3.064790 -4.507577 -5.301956 -3.305207 1.831855 11.107624 -10.311604 -16.206496 -2.601087 -0.061939 -2.942183 0.000000 0.000000 0.000000 0.421556 10.787570 4.690253 -69.636954 5.709525 -27.454843 -0.621493 -11.702572 -0.032673 33.265489 -5.775652 -1.746888 -0.021384 0.062930 -0.000000 0.000000 0.000000 0.000000 0.000000 0.000000 0.000000 13.941477 -7.938312 4.109980 70.742054 2.872589 -35.051176 0.592933 11.789557 -0.033391 -22.376196 16.278020 -3.298387 0.131832 -0.192784 -0.000000 0.000000 0.000000 0.000000 0.000000 0.000000 0.000000 
12.988957 15.085970 1.528974 101.835562 -85.512562 -52.392893 -8.154404 -0.287946 4.737612 -11.267635 -13.508836 -84.339934 -1.380961 3.853588 58.911305 4.030325 9.662906 -27.603902 -3.428200 -0.000000 -33.429700 9.009986 1.389000 5.098801 3.488466 4.663607 -87.887919 0.993062 -5.690929 63.345590 -2.827412 -3.265937 -28.012488 1.747000 -0.000001 -52.017300 0.419503 -2.781038 -7.746960 -0.553070 -3.101671 -4.523316 -5.286093 -3.344636 1.886619 11.218188 -10.538919 -16.459124 -2.551545 -0.053647 -3.029037 0.000000 0.000000 0.000000 0.290261 11.101404 4.751474 -69.138332 6.762927 -28.328332 -0.589356 -10.692900 -0.031172 33.329407 -5.469737 -1.657878 -0.023041 0.060156 -0.000000 0.000000 0.000000 0.000000 0.000000 0.000000 0.000000 13.972606 -8.180765 4.191230 70.325592 1.576901 -36.129595 0.549570 11.286756 -0.032358 -22.564307 16.197052 -3.309195 0.132300 -0.188199 -0.000000 0.000000 0.000000 0.000000 0.000000 0.000000 0.000000 
12.963294 14.992718 1.536160 101.869453 -85.428441 -51.647029 -8.131411 -0.337965 4.800078 -11.074888 -13.978288 -85.850797 -1.259630 4.009579 60.342141 4.107903 9.794771 -28.168633 -3.574900 -0.000000 -33.114199 9.024166 1.476472 5.162117 3.251742 4.710234 -89.450883 0.872664 -5.881093 64.760325 -2.856070 -3.256739 -28.493617 1.800200 0.000000 -52.045700 0.420693 -2.812318 -7.814584 -0.551639 -3.135754 -4.532375 -5.269252 -3.381062 1.941915 11.335419 -10.787553 -16.714639 -2.498181 -0.044715 -3.117885 0.000000 0.000000 0.000000 0.158668 11.445336 4.806512 -68.604103 7.734658 -29.179537 -0.554493 -9.683986 -0.029788 33.391734 -5.234076 -1.589669 -0.025354 0.057751 -0.000000 0.000000 0.000000 0.000000 0.000000 0.000000 0.000000 14.010408 -8.447973 4.266421 69.895488 0.332499 -37.111140 0.504500 10.832110 -0.031394 -22.784465 16.130028 -3.327504 0.133003 -0.183902 -0.000000 0.000000 0.000000 0.000000 0.000000 0.000000 0.000000 
12.938652 14.896895 1.543265 101.894813 -85.341395 -50.908138 -8.107572 -0.394058 4.851806 -10.868042 -14.446271 -87.351819 -1.130300 4.165272 61.798871 4.187092 9.943538 -28.737921 -3.729300 0.000000 -32.788700 9.038175 1.572232 5.218434 2.992691 4.755209 -90.998500 0.741153 -6.069952 66.202055 -2.889095 -3.269534 -28.988333 1.859900 0.000000 -52.031300 0.418512 -2.843399 -7.860805 -0.551324 -3.168700 -4.539915 -5.251661 -3.416464 1.979707 11.440437 -11.003074 -16.948666 -2.445635 -0.036012 -3.201333 0.000000 0.000000 0.000000 0.024369 11.742879 4.862399 -68.060139 8.722449 -30.010668 -0.517598 -8.750097 -0.028541 33.452012 -5.011491 -1.525062 -0.028299 0.055682 0.000000 0.000000 0.000000 0.000000 0.000000 0.000000 0.000000 14.032769 -8.679927 4.342612 69.481239 -0.913588 -38.090211 0.455182 10.427538 -0.030519 -23.000100 16.101774 -3.353012 0.133602 -0.180148 -0.000000 0.000000 0.000000 0.000000 0.000000 0.000000 0.000000 
12.914928 14.798801 1.550323 101.927261 -85.254331 -50.195605 -8.083532 -0.456508 4.890868 -10.650811 -14.904173 -88.836059 -0.994021 4.320870 63.278617 4.266707 10.104725 -29.312174 -3.890700 -0.000000 -32.466200 9.051243 1.675214 5.266936 2.715923 4.799033 -92.521685 0.599621 -6.256530 67.664590 -2.925835 -3.301448 -29.496521 1.925800 -0.000001 -51.976300 0.414321 -2.873877 -7.883241 -0.551849 -3.200129 -4.545345 -5.233118 -3.450453 2.000363 11.531934 -11.183294 -17.159817 -2.394256 -0.027609 -3.278908 0.000000 0.000000 0.000000 -0.114006 11.992822 4.918878 -67.514805 9.725530 -30.815253 -0.479179 -7.893487 -0.027410 33.502249 -4.800322 -1.463355 -0.031872 0.053910 0.000000 0.000000 0.000000 0.000000 0.000000 0.000000 0.000000 14.038992 -8.874609 4.420356 69.084910 -2.152789 -39.080253 0.401158 10.056249 -0.029743 -23.208540 16.111485 -3.385519 0.134073 -0.176941 -0.000000 0.000000 0.000000 0.000000 0.000000 0.000000 0.000000 
